<svg width="62" height="56" viewBox="0 0 62 56" fill="none" xmlns="http://www.w3.org/2000/svg">
<path d="M50.0776 54.5245L39.9848 54.5248L24.442 9.45757L23.9209 7.94742L23.4879 9.48518L10.8061 54.5256L0.695718 54.5249L18.895 0.520833L28.6303 0.521227L50.0776 54.5245Z" fill="#2F2B2B" stroke="black"/>
<path d="M37.0005 22C30.3701 22 24.0112 23.475 19.3228 26.1005C14.6344 28.726 12.0005 32.287 12.0005 36C12.0005 39.713 14.6344 43.274 19.3228 45.8995C24.0112 48.525 30.3701 50 37.0005 50L37.0005 46.8412C31.8661 46.8412 26.942 45.699 23.3114 43.6659C19.6808 41.6328 17.6412 38.8753 17.6412 36C17.6412 33.1247 19.6808 30.3672 23.3114 28.3341C26.942 26.301 31.8661 25.1588 37.0005 25.1588L37.0005 22Z" fill="#D9D9D9"/>
</svg>
